<svg width="200" height="194" viewBox="0 0 200 194" fill="none" xmlns="http://www.w3.org/2000/svg">
<g clip-path="url(#clip0_2022_348)">
<path opacity="0.982" fill-rule="evenodd" clip-rule="evenodd" d="M132.937 -0.397583C135.318 -0.397583 137.699 -0.397583 140.079 -0.397583C142.085 1.42704 143.275 3.81229 143.651 6.75815C148.894 12.3365 154.581 12.8666 160.714 8.34832C165.122 10.2099 167.37 13.3903 167.46 17.8893C164.17 21.9988 164.17 26.2393 167.46 30.6106C169.953 32.9466 172.863 34.5368 176.191 35.3811C176.72 38.5614 176.72 41.7418 176.191 44.9221C169.545 46.1478 165.708 50.1232 164.683 56.8483C165.743 59.5025 166.802 62.1528 167.857 64.7991C166.314 67.8042 164.065 70.1894 161.111 71.9549C154.907 67.4292 149.087 67.9593 143.651 73.545C143.047 75.5748 142.386 77.5625 141.667 79.5082C138.198 80.1665 134.758 80.0337 131.349 79.1106C129.749 71.2843 124.987 67.9714 117.064 69.1721C115.609 70.0997 114.153 71.0273 112.699 71.9549C109.646 69.9573 107.133 67.4395 105.159 64.4016C109.637 57.9429 108.843 52.1123 102.778 46.9098C100.752 46.3047 98.7676 45.6421 96.8255 44.9221C96.2961 41.7418 96.2961 38.5614 96.8255 35.3811C103.475 34.1518 107.311 30.1764 108.333 23.4549C107.942 21.0813 107.016 18.9611 105.556 17.0942C106.021 13.0217 108.27 10.1063 112.302 8.34832C119.286 13.2357 125.238 12.1756 130.159 5.16799C130.073 2.6738 130.999 0.818614 132.937 -0.397583ZM133.73 29.8155C140.561 29.116 144.926 32.0313 146.825 38.5614C146.02 48.3139 140.861 51.8918 131.349 49.295C126.895 45.9751 125.441 41.6021 126.984 36.1762C128.63 33.3323 130.879 31.2121 133.73 29.8155Z" fill="#8D7474"/>
<path opacity="0.985" fill-rule="evenodd" clip-rule="evenodd" d="M-0.396729 90.2418C-0.396729 85.4713 -0.396729 80.7008 -0.396729 75.9303C11.703 74.2233 16.5971 67.3326 14.2858 55.2582C13.7976 53.9732 13.0039 52.9131 11.9049 52.0778C11.3757 50.4877 11.3757 48.8975 11.9049 47.3073C14.1535 45.0546 16.4022 42.8018 18.6509 40.5491C19.9737 40.0191 21.2964 40.0191 22.6191 40.5491C30.5293 45.6129 37.8045 44.6853 44.4445 37.7663C45.7338 34.7363 46.9243 31.6885 48.016 28.6229C52.5134 28.0928 57.0107 28.0928 61.508 28.6229C63.7195 40.7329 70.8624 45.5034 82.9366 42.9344C84.7985 40.5481 87.1795 39.753 90.0795 40.5491C92.593 43.0669 95.1057 45.5846 97.6191 48.1024C98.1485 49.1625 98.1485 50.2227 97.6191 51.2827C92.6096 58.9934 93.2715 66.2816 99.6033 73.1475C102.851 74.5386 106.158 75.7312 109.524 76.7254C110.053 81.2311 110.053 85.736 109.524 90.2418C98.1977 91.9774 93.1707 98.6028 94.4445 110.119C95.3017 112.103 96.3604 113.959 97.6191 115.684C98.1485 116.744 98.1485 117.805 97.6191 118.865C94.9072 121.985 91.8652 124.635 88.4922 126.816C86.0898 126.131 83.9731 124.938 82.143 123.238C70.3439 121.713 63.4656 126.749 61.508 138.344C57.0107 138.875 52.5134 138.875 48.016 138.344C46.9524 134.609 45.4973 131.031 43.6509 127.611C36.8749 121.876 29.8644 121.479 22.6191 126.418C21.561 126.948 20.5027 126.948 19.4445 126.418C16.9313 123.9 14.4181 121.383 11.9049 118.865C11.3757 117.539 11.3757 116.215 11.9049 114.889C16.4313 108.891 16.4313 102.795 11.9049 96.6024C11.1461 95.7445 10.4847 94.8175 9.92073 93.8196C6.5885 92.2581 3.14935 91.0655 -0.396729 90.2418ZM51.1906 69.5696C62.7864 69.128 68.4742 74.6935 68.2541 86.2663C64.3385 96.3758 57.328 99.4234 47.2223 95.4098C40.663 90.0843 39.208 83.5917 42.8572 75.9303C45.2186 73.1097 47.9964 70.9895 51.1906 69.5696Z" fill="#8D7474"/>
<path opacity="0.986" fill-rule="evenodd" clip-rule="evenodd" d="M199.603 131.586C199.603 136.357 199.603 141.127 199.603 145.897C187.503 147.605 182.609 154.496 184.921 166.57C185.409 167.854 186.202 168.914 187.301 169.75C187.831 171.34 187.831 172.93 187.301 174.52C185.053 176.773 182.804 179.026 180.555 181.279C179.232 181.809 177.91 181.809 176.587 181.279C168.677 176.215 161.402 177.143 154.762 184.061C153.422 187.213 152.232 190.393 151.19 193.602C146.693 193.602 142.196 193.602 137.698 193.602C135.724 181.213 128.581 176.31 116.27 178.893C114.408 181.279 112.027 182.075 109.127 181.279C106.613 178.761 104.101 176.243 101.587 173.725C101.058 172.666 101.058 171.605 101.587 170.545C106.597 162.834 105.935 155.546 99.6031 148.68C96.3554 147.289 93.0483 146.096 89.6824 145.102C89.1531 140.597 89.1531 136.092 89.6824 131.586C101.017 129.83 106.043 123.204 104.762 111.709C103.905 109.724 102.846 107.869 101.587 106.143C101.058 105.084 101.058 104.023 101.587 102.963C104.299 99.8432 107.341 97.1932 110.714 95.0122C113.892 97.0007 117.332 98.3261 121.032 98.9877C131.073 98.5997 136.628 93.4316 137.698 83.4836C142.196 82.9532 146.693 82.9532 151.19 83.4836C153.193 94.4923 159.806 99.5275 171.032 98.5901C173.013 97.7314 174.865 96.6708 176.587 95.4098C177.645 94.8795 178.704 94.8795 179.762 95.4098C182.964 98.3516 185.874 101.532 188.492 104.951C182.212 112.774 182.477 120.459 189.286 128.008C192.618 129.57 196.057 130.762 199.603 131.586ZM141.667 124.43C149.859 123.562 155.282 127.007 157.936 134.766C159.437 143.29 156.13 148.988 148.016 151.861C136.404 152.684 130.716 147.252 130.952 135.561C132.553 129.851 136.124 126.141 141.667 124.43Z" fill="#8D7474"/>
</g>
<defs>
<clipPath id="clip0_2022_348">
<rect width="200" height="194" fill="white"/>
</clipPath>
</defs>
</svg>
