<svg width="180" height="180" viewBox="0 0 180 180" fill="none" xmlns="http://www.w3.org/2000/svg">
<g clip-path="url(#clip0_2022_362)">
<path opacity="0.992" fill-rule="evenodd" clip-rule="evenodd" d="M7.39127 -0.434814C29.1304 -0.434814 50.8695 -0.434814 72.6087 -0.434814C75.9268 0.443365 78.3907 2.47235 80 5.65214C80.5797 28.5507 80.5797 51.4493 80 74.3478C79.3165 77.0284 77.7223 78.9125 75.2174 80C51.7391 80.5797 28.2608 80.5797 4.78258 80C2.63687 79.1484 0.897742 77.8441 -0.434814 76.0869C-0.434814 52.3188 -0.434814 28.5507 -0.434814 4.78258C1.74385 2.29927 4.35255 0.560139 7.39127 -0.434814Z" fill="#8D7474"/>
<path opacity="0.992" fill-rule="evenodd" clip-rule="evenodd" d="M106.522 -0.434814C128.261 -0.434814 150 -0.434814 171.739 -0.434814C174.778 0.560139 177.387 2.29927 179.565 4.78258C179.565 28.5507 179.565 52.3188 179.565 76.0869C178.233 77.8441 176.494 79.1484 174.348 80C150.869 80.5797 127.391 80.5797 103.913 80C101.408 78.9125 99.8138 77.0284 99.1303 74.3478C98.5503 51.4493 98.5503 28.5507 99.1303 5.65214C100.74 2.47235 103.203 0.443365 106.522 -0.434814Z" fill="#8D7474"/>
<path opacity="0.991" fill-rule="evenodd" clip-rule="evenodd" d="M75.2174 179.565C51.7391 179.565 28.2608 179.565 4.78258 179.565C3.06504 178.142 1.32591 176.692 -0.434814 175.217C-0.434814 151.45 -0.434814 127.681 -0.434814 103.913C1.40186 101.684 3.72071 100.09 6.52171 99.1304C28.5507 98.5504 50.5797 98.5504 72.6087 99.1304C76.0858 99.7113 78.5495 101.596 80 104.783C80.5797 127.681 80.5797 150.58 80 173.478C79.1593 176.192 77.5651 178.221 75.2174 179.565Z" fill="#8D7474"/>
<path opacity="0.983" fill-rule="evenodd" clip-rule="evenodd" d="M179.565 130.87C179.565 136.667 179.565 142.463 179.565 148.261C174.447 164.975 163.432 175.41 146.522 179.565C141.594 179.565 136.667 179.565 131.739 179.565C104.242 170.666 94.2418 152.116 101.739 123.913C111.324 104.555 126.831 96.5834 148.261 100C164.58 104.421 175.015 114.71 179.565 130.87Z" fill="#8D7474"/>
</g>
<defs>
<clipPath id="clip0_2022_362">
<rect width="180" height="180" fill="white"/>
</clipPath>
</defs>
</svg>
