<svg width="200" height="124" viewBox="0 0 200 124" fill="none" xmlns="http://www.w3.org/2000/svg">
<g clip-path="url(#clip0_2022_355)">
<path opacity="0.968" fill-rule="evenodd" clip-rule="evenodd" d="M-0.398438 0.400024C12.1549 1.8783 24.6383 3.8783 37.0518 6.40002C38.3567 8.44626 39.2863 10.7129 39.8406 13.2C43.5098 14.3402 45.5019 12.8735 45.8167 8.80002C76.4206 13.2371 106.965 18.3038 137.45 24C140.1 25.2915 140.365 26.8915 138.247 28.8C107.703 29.3334 77.158 29.3334 46.6135 28.8C45.3216 27.0672 44.6577 25.0672 44.6215 22.8C43.0279 20.6667 41.4342 20.6667 39.8406 22.8C39.0757 24.7843 38.4116 26.7843 37.8486 28.8C31.2085 29.3334 24.5683 29.3334 17.9283 28.8C12.9271 23.0842 6.8182 18.9508 -0.398438 16.4C-0.398438 11.0667 -0.398438 5.73336 -0.398438 0.400024Z" fill="#8D7474"/>
<path opacity="0.977" fill-rule="evenodd" clip-rule="evenodd" d="M199.602 36.4C199.602 41.7333 199.602 47.0666 199.602 52.4C181.068 56.9968 173.233 68.7302 176.096 87.6C180.217 98.5344 188.053 104.934 199.602 106.8C199.602 112.134 199.602 117.466 199.602 122.8C199.07 122.8 198.805 123.066 198.805 123.6C132.935 123.6 67.0651 123.6 1.19519 123.6C0.922909 122.93 0.3917 122.662 -0.398438 122.8C-0.398438 117.466 -0.398438 112.134 -0.398438 106.8C18.1347 102.203 25.9701 90.4696 23.1075 71.6C18.9797 60.6582 11.1444 54.2582 -0.398438 52.4C-0.398438 47.0666 -0.398438 41.7333 -0.398438 36.4C66.2683 35.3333 132.935 35.3333 199.602 36.4ZM41.0358 42C42.5421 41.8372 43.7373 42.3705 44.6215 43.6C45.1527 46.8 45.1527 50 44.6215 53.2C42.8134 55.2435 40.9542 55.2435 39.0438 53.2C38.0222 49.0358 38.6863 45.3025 41.0358 42ZM64.1434 50.8C79.5507 50.6667 94.9561 50.8 110.359 51.2C112.604 53.7762 112.072 55.6428 108.765 56.8C93.8908 57.3333 79.0173 57.3333 64.1434 56.8C61.0333 54.67 61.0333 52.67 64.1434 50.8ZM41.0358 62.8C44.585 63.3291 45.913 65.4624 45.0199 69.2C45.9636 73.9827 44.2373 75.8493 39.8406 74.8C38.6291 71.7 38.3635 68.5 39.0438 65.2C39.5999 64.2475 40.264 63.4475 41.0358 62.8ZM64.9402 67.6C95.7514 67.4666 126.562 67.6 157.37 68C160.03 69.5903 160.296 71.4569 158.167 73.6C126.56 74.1333 94.9538 74.1333 63.3466 73.6C61.5591 71.1432 62.0903 69.1432 64.9402 67.6ZM40.239 83.6C42.0098 83.3424 43.4706 83.876 44.6215 85.2C45.1527 88.4 45.1527 91.6 44.6215 94.8C42.3584 97.0968 40.4992 96.8296 39.0438 94C38.2909 90.3512 38.6893 86.8848 40.239 83.6ZM64.1434 85.2C95.486 85.0664 126.827 85.2 158.167 85.6C160.413 88.176 159.881 90.0432 156.574 91.2C125.763 91.7336 94.9538 91.7336 64.1434 91.2C61.0333 89.0696 61.0333 87.0696 64.1434 85.2ZM64.9402 102C95.7514 101.866 126.562 102 157.37 102.4C160.03 103.99 160.296 105.857 158.167 108C126.56 108.534 94.9538 108.534 63.3466 108C61.5591 105.543 62.0903 103.543 64.9402 102ZM40.239 104.4C42.0445 104.113 43.5054 104.646 44.6215 106C45.1527 109.2 45.1527 112.4 44.6215 115.6C42.3584 117.897 40.4992 117.63 39.0438 114.8C38.2909 111.151 38.6893 107.685 40.239 104.4Z" fill="#8D7474"/>
<path opacity="0.968" fill-rule="evenodd" clip-rule="evenodd" d="M-0.398438 86.8C-0.398438 82 -0.398438 77.2 -0.398438 72.4C14.3156 64.126 20.2917 68.3927 17.5298 85.2C17.2949 87.1448 16.3652 88.6112 14.741 89.6C9.38674 90.0384 4.34029 89.1048 -0.398438 86.8Z" fill="#8D7474"/>
</g>
<defs>
<clipPath id="clip0_2022_355">
<rect width="200" height="124" fill="white"/>
</clipPath>
</defs>
</svg>
